{
	"patcher" : 	{
		"fileversion" : 1,
		"rect" : [ 225.0, 111.0, 365.0, 535.0 ],
		"bglocked" : 0,
		"defrect" : [ 225.0, 111.0, 365.0, 535.0 ],
		"openrect" : [ 0.0, 0.0, 0.0, 0.0 ],
		"openinpresentation" : 0,
		"default_fontsize" : 12.0,
		"default_fontface" : 0,
		"default_fontname" : "Arial",
		"gridonopen" : 0,
		"gridsize" : [ 15.0, 15.0 ],
		"gridsnaponopen" : 0,
		"toolbarvisible" : 1,
		"boxanimatetime" : 200,
		"imprint" : 0,
		"enablehscroll" : 1,
		"enablevscroll" : 1,
		"devicewidth" : 0.0,
		"boxes" : [ 			{
				"box" : 				{
					"maxclass" : "newobj",
					"text" : "r pulse",
					"patching_rect" : [ 158.0, 321.0, 47.0, 20.0 ],
					"numinlets" : 0,
					"fontname" : "Arial",
					"numoutlets" : 1,
					"outlettype" : [ "" ],
					"fontsize" : 12.0,
					"id" : "obj-11"
				}

			}
, 			{
				"box" : 				{
					"maxclass" : "newobj",
					"text" : "p row_bitmask",
					"patching_rect" : [ 45.0, 294.0, 81.0, 18.0 ],
					"numinlets" : 1,
					"fontname" : "Arial Bold",
					"numoutlets" : 1,
					"outlettype" : [ "" ],
					"fontsize" : 10.0,
					"id" : "obj-7",
					"patcher" : 					{
						"fileversion" : 1,
						"rect" : [ 537.0, 147.0, 364.0, 336.0 ],
						"bglocked" : 0,
						"defrect" : [ 537.0, 147.0, 364.0, 336.0 ],
						"openrect" : [ 0.0, 0.0, 0.0, 0.0 ],
						"openinpresentation" : 0,
						"default_fontsize" : 12.0,
						"default_fontface" : 0,
						"default_fontname" : "Arial",
						"gridonopen" : 0,
						"gridsize" : [ 15.0, 15.0 ],
						"gridsnaponopen" : 0,
						"toolbarvisible" : 1,
						"boxanimatetime" : 200,
						"imprint" : 0,
						"enablehscroll" : 1,
						"enablevscroll" : 1,
						"devicewidth" : 0.0,
						"boxes" : [ 							{
								"box" : 								{
									"maxclass" : "newobj",
									"text" : "t b i",
									"patching_rect" : [ 172.0, 129.0, 32.5, 20.0 ],
									"numinlets" : 1,
									"fontname" : "Arial",
									"numoutlets" : 2,
									"outlettype" : [ "bang", "int" ],
									"fontsize" : 12.0,
									"id" : "obj-5"
								}

							}
, 							{
								"box" : 								{
									"maxclass" : "message",
									"text" : "7",
									"patching_rect" : [ 134.0, 103.0, 32.5, 18.0 ],
									"numinlets" : 2,
									"fontname" : "Arial",
									"numoutlets" : 1,
									"outlettype" : [ "" ],
									"fontsize" : 12.0,
									"id" : "obj-3"
								}

							}
, 							{
								"box" : 								{
									"maxclass" : "message",
									"text" : "0",
									"patching_rect" : [ 88.0, 107.0, 32.5, 18.0 ],
									"numinlets" : 2,
									"fontname" : "Arial",
									"numoutlets" : 1,
									"outlettype" : [ "" ],
									"fontsize" : 12.0,
									"id" : "obj-60"
								}

							}
, 							{
								"box" : 								{
									"maxclass" : "newobj",
									"text" : "select -1 -2",
									"patching_rect" : [ 120.0, 66.0, 70.0, 20.0 ],
									"numinlets" : 1,
									"fontname" : "Arial",
									"numoutlets" : 3,
									"outlettype" : [ "bang", "bang", "" ],
									"fontsize" : 12.0,
									"id" : "obj-61"
								}

							}
, 							{
								"box" : 								{
									"maxclass" : "outlet",
									"patching_rect" : [ 117.0, 264.0, 25.0, 25.0 ],
									"numinlets" : 1,
									"numoutlets" : 0,
									"id" : "obj-2",
									"comment" : ""
								}

							}
, 							{
								"box" : 								{
									"maxclass" : "message",
									"text" : "1",
									"patching_rect" : [ 126.0, 171.0, 32.5, 16.0 ],
									"numinlets" : 2,
									"fontname" : "Arial Bold",
									"numoutlets" : 1,
									"outlettype" : [ "" ],
									"fontsize" : 10.0,
									"id" : "obj-21"
								}

							}
, 							{
								"box" : 								{
									"maxclass" : "newobj",
									"text" : "<<",
									"patching_rect" : [ 159.0, 193.0, 32.5, 18.0 ],
									"numinlets" : 2,
									"fontname" : "Arial Bold",
									"numoutlets" : 1,
									"outlettype" : [ "int" ],
									"fontsize" : 10.0,
									"id" : "obj-20"
								}

							}
, 							{
								"box" : 								{
									"maxclass" : "inlet",
									"patching_rect" : [ 111.0, 15.0, 25.0, 25.0 ],
									"numinlets" : 0,
									"numoutlets" : 1,
									"outlettype" : [ "int" ],
									"id" : "obj-1",
									"comment" : ""
								}

							}
 ],
						"lines" : [ 							{
								"patchline" : 								{
									"source" : [ "obj-5", 1 ],
									"destination" : [ "obj-20", 1 ],
									"hidden" : 0,
									"midpoints" : [  ]
								}

							}
, 							{
								"patchline" : 								{
									"source" : [ "obj-5", 0 ],
									"destination" : [ "obj-21", 0 ],
									"hidden" : 0,
									"midpoints" : [  ]
								}

							}
, 							{
								"patchline" : 								{
									"source" : [ "obj-61", 2 ],
									"destination" : [ "obj-5", 0 ],
									"hidden" : 0,
									"midpoints" : [  ]
								}

							}
, 							{
								"patchline" : 								{
									"source" : [ "obj-3", 0 ],
									"destination" : [ "obj-5", 0 ],
									"hidden" : 0,
									"midpoints" : [  ]
								}

							}
, 							{
								"patchline" : 								{
									"source" : [ "obj-60", 0 ],
									"destination" : [ "obj-2", 0 ],
									"hidden" : 0,
									"midpoints" : [  ]
								}

							}
, 							{
								"patchline" : 								{
									"source" : [ "obj-1", 0 ],
									"destination" : [ "obj-61", 0 ],
									"hidden" : 0,
									"midpoints" : [  ]
								}

							}
, 							{
								"patchline" : 								{
									"source" : [ "obj-61", 1 ],
									"destination" : [ "obj-3", 0 ],
									"hidden" : 0,
									"midpoints" : [  ]
								}

							}
, 							{
								"patchline" : 								{
									"source" : [ "obj-61", 0 ],
									"destination" : [ "obj-60", 0 ],
									"hidden" : 0,
									"midpoints" : [  ]
								}

							}
, 							{
								"patchline" : 								{
									"source" : [ "obj-21", 0 ],
									"destination" : [ "obj-20", 0 ],
									"hidden" : 0,
									"midpoints" : [  ]
								}

							}
, 							{
								"patchline" : 								{
									"source" : [ "obj-20", 0 ],
									"destination" : [ "obj-2", 0 ],
									"hidden" : 0,
									"midpoints" : [  ]
								}

							}
 ]
					}
,
					"saved_object_attributes" : 					{
						"globalpatchername" : "",
						"default_fontname" : "Arial",
						"default_fontsize" : 12.0,
						"fontname" : "Arial",
						"fontface" : 0,
						"fontsize" : 12.0,
						"default_fontface" : 0
					}

				}

			}
, 			{
				"box" : 				{
					"maxclass" : "message",
					"text" : "-1",
					"patching_rect" : [ 245.0, 212.0, 32.5, 18.0 ],
					"numinlets" : 2,
					"fontname" : "Arial",
					"numoutlets" : 1,
					"outlettype" : [ "" ],
					"fontsize" : 12.0,
					"id" : "obj-5"
				}

			}
, 			{
				"box" : 				{
					"maxclass" : "newobj",
					"text" : "loadbang",
					"patching_rect" : [ 245.0, 187.0, 60.0, 20.0 ],
					"numinlets" : 1,
					"fontname" : "Arial",
					"numoutlets" : 1,
					"outlettype" : [ "bang" ],
					"fontsize" : 12.0,
					"id" : "obj-4"
				}

			}
, 			{
				"box" : 				{
					"maxclass" : "newobj",
					"text" : "udpsend localhost 8080",
					"patching_rect" : [ 45.0, 481.0, 137.0, 20.0 ],
					"numinlets" : 1,
					"fontname" : "Arial",
					"numoutlets" : 0,
					"fontsize" : 12.0,
					"id" : "obj-3"
				}

			}
, 			{
				"box" : 				{
					"maxclass" : "comment",
					"text" : "This patch controls the blinking fired clip and the solid playing clip for one track",
					"linecount" : 2,
					"patching_rect" : [ 47.0, 50.0, 228.0, 34.0 ],
					"numinlets" : 1,
					"fontname" : "Arial",
					"numoutlets" : 0,
					"fontsize" : 12.0,
					"id" : "obj-1"
				}

			}
, 			{
				"box" : 				{
					"maxclass" : "newobj",
					"text" : "live.observer fired_slot_index",
					"patching_rect" : [ 134.0, 161.0, 152.0, 18.0 ],
					"numinlets" : 2,
					"fontname" : "Arial Bold",
					"numoutlets" : 2,
					"outlettype" : [ "", "" ],
					"fontsize" : 10.0,
					"id" : "obj-68"
				}

			}
, 			{
				"box" : 				{
					"maxclass" : "newobj",
					"text" : "live.observer playing_slot_index",
					"patching_rect" : [ 46.0, 131.0, 165.0, 18.0 ],
					"numinlets" : 2,
					"fontname" : "Arial Bold",
					"numoutlets" : 2,
					"outlettype" : [ "", "" ],
					"fontsize" : 10.0,
					"id" : "obj-65"
				}

			}
, 			{
				"box" : 				{
					"maxclass" : "newobj",
					"text" : "live.path live_set tracks #1",
					"patching_rect" : [ 47.0, 102.0, 137.0, 18.0 ],
					"numinlets" : 1,
					"fontname" : "Arial Bold",
					"numoutlets" : 3,
					"outlettype" : [ "", "", "" ],
					"fontsize" : 10.0,
					"id" : "obj-67"
				}

			}
, 			{
				"box" : 				{
					"maxclass" : "newobj",
					"text" : "t b i",
					"patching_rect" : [ 134.0, 383.0, 32.5, 18.0 ],
					"numinlets" : 1,
					"fontname" : "Arial Bold",
					"numoutlets" : 2,
					"outlettype" : [ "bang", "int" ],
					"fontsize" : 10.0,
					"id" : "obj-58"
				}

			}
, 			{
				"box" : 				{
					"maxclass" : "newobj",
					"text" : "|",
					"patching_rect" : [ 45.0, 407.0, 32.5, 18.0 ],
					"numinlets" : 2,
					"fontname" : "Arial Bold",
					"numoutlets" : 1,
					"outlettype" : [ "int" ],
					"fontsize" : 10.0,
					"id" : "obj-55"
				}

			}
, 			{
				"box" : 				{
					"maxclass" : "newobj",
					"text" : "blinker",
					"patching_rect" : [ 134.0, 350.0, 43.0, 18.0 ],
					"numinlets" : 2,
					"fontname" : "Arial Bold",
					"numoutlets" : 1,
					"outlettype" : [ "" ],
					"fontsize" : 10.0,
					"id" : "obj-53"
				}

			}
, 			{
				"box" : 				{
					"maxclass" : "newobj",
					"text" : "p row_bitmask",
					"patching_rect" : [ 134.0, 293.0, 81.0, 18.0 ],
					"numinlets" : 1,
					"fontname" : "Arial Bold",
					"numoutlets" : 1,
					"outlettype" : [ "int" ],
					"fontsize" : 10.0,
					"id" : "obj-51",
					"patcher" : 					{
						"fileversion" : 1,
						"rect" : [ 537.0, 147.0, 364.0, 336.0 ],
						"bglocked" : 0,
						"defrect" : [ 537.0, 147.0, 364.0, 336.0 ],
						"openrect" : [ 0.0, 0.0, 0.0, 0.0 ],
						"openinpresentation" : 0,
						"default_fontsize" : 12.0,
						"default_fontface" : 0,
						"default_fontname" : "Arial",
						"gridonopen" : 0,
						"gridsize" : [ 15.0, 15.0 ],
						"gridsnaponopen" : 0,
						"toolbarvisible" : 1,
						"boxanimatetime" : 200,
						"imprint" : 0,
						"enablehscroll" : 1,
						"enablevscroll" : 1,
						"devicewidth" : 0.0,
						"boxes" : [ 							{
								"box" : 								{
									"maxclass" : "newobj",
									"text" : "t b i",
									"patching_rect" : [ 172.0, 129.0, 32.5, 20.0 ],
									"numinlets" : 1,
									"fontname" : "Arial",
									"numoutlets" : 2,
									"outlettype" : [ "bang", "int" ],
									"fontsize" : 12.0,
									"id" : "obj-5"
								}

							}
, 							{
								"box" : 								{
									"maxclass" : "message",
									"text" : "7",
									"patching_rect" : [ 134.0, 103.0, 32.5, 18.0 ],
									"numinlets" : 2,
									"fontname" : "Arial",
									"numoutlets" : 1,
									"outlettype" : [ "" ],
									"fontsize" : 12.0,
									"id" : "obj-3"
								}

							}
, 							{
								"box" : 								{
									"maxclass" : "message",
									"text" : "0",
									"patching_rect" : [ 88.0, 107.0, 32.5, 18.0 ],
									"numinlets" : 2,
									"fontname" : "Arial",
									"numoutlets" : 1,
									"outlettype" : [ "" ],
									"fontsize" : 12.0,
									"id" : "obj-60"
								}

							}
, 							{
								"box" : 								{
									"maxclass" : "newobj",
									"text" : "select -1 -2",
									"patching_rect" : [ 120.0, 66.0, 70.0, 20.0 ],
									"numinlets" : 1,
									"fontname" : "Arial",
									"numoutlets" : 3,
									"outlettype" : [ "bang", "bang", "" ],
									"fontsize" : 12.0,
									"id" : "obj-61"
								}

							}
, 							{
								"box" : 								{
									"maxclass" : "outlet",
									"patching_rect" : [ 117.0, 264.0, 25.0, 25.0 ],
									"numinlets" : 1,
									"numoutlets" : 0,
									"id" : "obj-2",
									"comment" : ""
								}

							}
, 							{
								"box" : 								{
									"maxclass" : "message",
									"text" : "1",
									"patching_rect" : [ 126.0, 171.0, 32.5, 16.0 ],
									"numinlets" : 2,
									"fontname" : "Arial Bold",
									"numoutlets" : 1,
									"outlettype" : [ "" ],
									"fontsize" : 10.0,
									"id" : "obj-21"
								}

							}
, 							{
								"box" : 								{
									"maxclass" : "newobj",
									"text" : "<<",
									"patching_rect" : [ 159.0, 193.0, 32.5, 18.0 ],
									"numinlets" : 2,
									"fontname" : "Arial Bold",
									"numoutlets" : 1,
									"outlettype" : [ "int" ],
									"fontsize" : 10.0,
									"id" : "obj-20"
								}

							}
, 							{
								"box" : 								{
									"maxclass" : "inlet",
									"patching_rect" : [ 111.0, 15.0, 25.0, 25.0 ],
									"numinlets" : 0,
									"numoutlets" : 1,
									"outlettype" : [ "int" ],
									"id" : "obj-1",
									"comment" : ""
								}

							}
 ],
						"lines" : [ 							{
								"patchline" : 								{
									"source" : [ "obj-20", 0 ],
									"destination" : [ "obj-2", 0 ],
									"hidden" : 0,
									"midpoints" : [  ]
								}

							}
, 							{
								"patchline" : 								{
									"source" : [ "obj-21", 0 ],
									"destination" : [ "obj-20", 0 ],
									"hidden" : 0,
									"midpoints" : [  ]
								}

							}
, 							{
								"patchline" : 								{
									"source" : [ "obj-61", 0 ],
									"destination" : [ "obj-60", 0 ],
									"hidden" : 0,
									"midpoints" : [  ]
								}

							}
, 							{
								"patchline" : 								{
									"source" : [ "obj-61", 1 ],
									"destination" : [ "obj-3", 0 ],
									"hidden" : 0,
									"midpoints" : [  ]
								}

							}
, 							{
								"patchline" : 								{
									"source" : [ "obj-1", 0 ],
									"destination" : [ "obj-61", 0 ],
									"hidden" : 0,
									"midpoints" : [  ]
								}

							}
, 							{
								"patchline" : 								{
									"source" : [ "obj-60", 0 ],
									"destination" : [ "obj-2", 0 ],
									"hidden" : 0,
									"midpoints" : [  ]
								}

							}
, 							{
								"patchline" : 								{
									"source" : [ "obj-3", 0 ],
									"destination" : [ "obj-5", 0 ],
									"hidden" : 0,
									"midpoints" : [  ]
								}

							}
, 							{
								"patchline" : 								{
									"source" : [ "obj-61", 2 ],
									"destination" : [ "obj-5", 0 ],
									"hidden" : 0,
									"midpoints" : [  ]
								}

							}
, 							{
								"patchline" : 								{
									"source" : [ "obj-5", 0 ],
									"destination" : [ "obj-21", 0 ],
									"hidden" : 0,
									"midpoints" : [  ]
								}

							}
, 							{
								"patchline" : 								{
									"source" : [ "obj-5", 1 ],
									"destination" : [ "obj-20", 1 ],
									"hidden" : 0,
									"midpoints" : [  ]
								}

							}
 ]
					}
,
					"saved_object_attributes" : 					{
						"globalpatchername" : "",
						"default_fontname" : "Arial",
						"default_fontsize" : 12.0,
						"fontname" : "Arial",
						"fontface" : 0,
						"fontsize" : 12.0,
						"default_fontface" : 0
					}

				}

			}
, 			{
				"box" : 				{
					"maxclass" : "number",
					"hint" : "Fired clip",
					"annotation" : "Fired clip",
					"patching_rect" : [ 134.0, 236.0, 37.0, 18.0 ],
					"numinlets" : 1,
					"fontname" : "Arial Bold",
					"minimum" : -2,
					"numoutlets" : 2,
					"outlettype" : [ "int", "bang" ],
					"fontsize" : 10.0,
					"id" : "obj-47"
				}

			}
, 			{
				"box" : 				{
					"maxclass" : "number",
					"hint" : "Playing clip",
					"annotation" : "Playing clip",
					"patching_rect" : [ 46.0, 234.0, 32.0, 18.0 ],
					"numinlets" : 1,
					"fontname" : "Arial Bold",
					"minimum" : -1,
					"numoutlets" : 2,
					"outlettype" : [ "int", "bang" ],
					"fontsize" : 10.0,
					"id" : "obj-28"
				}

			}
, 			{
				"box" : 				{
					"maxclass" : "message",
					"text" : "/launch/led_col #1 $1",
					"patching_rect" : [ 44.954102, 450.767151, 111.0, 16.0 ],
					"numinlets" : 2,
					"fontname" : "Arial Bold",
					"numoutlets" : 1,
					"outlettype" : [ "" ],
					"fontsize" : 10.0,
					"id" : "obj-19"
				}

			}
 ],
		"lines" : [ 			{
				"patchline" : 				{
					"source" : [ "obj-58", 1 ],
					"destination" : [ "obj-55", 1 ],
					"hidden" : 0,
					"midpoints" : [ 157.0, 409.0, 68.0, 409.0 ]
				}

			}
, 			{
				"patchline" : 				{
					"source" : [ "obj-58", 0 ],
					"destination" : [ "obj-55", 0 ],
					"hidden" : 0,
					"midpoints" : [ 143.5, 401.0, 86.0, 401.0, 86.0, 395.0, 54.5, 395.0 ]
				}

			}
, 			{
				"patchline" : 				{
					"source" : [ "obj-68", 0 ],
					"destination" : [ "obj-47", 0 ],
					"hidden" : 0,
					"midpoints" : [  ]
				}

			}
, 			{
				"patchline" : 				{
					"source" : [ "obj-65", 0 ],
					"destination" : [ "obj-28", 0 ],
					"hidden" : 0,
					"midpoints" : [  ]
				}

			}
, 			{
				"patchline" : 				{
					"source" : [ "obj-67", 1 ],
					"destination" : [ "obj-65", 1 ],
					"hidden" : 0,
					"midpoints" : [ 115.5, 127.0, 201.5, 127.0 ]
				}

			}
, 			{
				"patchline" : 				{
					"source" : [ "obj-67", 1 ],
					"destination" : [ "obj-68", 1 ],
					"hidden" : 0,
					"midpoints" : [ 115.5, 124.0, 276.5, 124.0 ]
				}

			}
, 			{
				"patchline" : 				{
					"source" : [ "obj-47", 0 ],
					"destination" : [ "obj-51", 0 ],
					"hidden" : 0,
					"midpoints" : [  ]
				}

			}
, 			{
				"patchline" : 				{
					"source" : [ "obj-4", 0 ],
					"destination" : [ "obj-5", 0 ],
					"hidden" : 0,
					"midpoints" : [  ]
				}

			}
, 			{
				"patchline" : 				{
					"source" : [ "obj-5", 0 ],
					"destination" : [ "obj-28", 0 ],
					"hidden" : 0,
					"midpoints" : [ 254.5, 229.0, 55.5, 229.0 ]
				}

			}
, 			{
				"patchline" : 				{
					"source" : [ "obj-5", 0 ],
					"destination" : [ "obj-47", 0 ],
					"hidden" : 0,
					"midpoints" : [ 254.5, 229.0, 143.5, 229.0 ]
				}

			}
, 			{
				"patchline" : 				{
					"source" : [ "obj-28", 0 ],
					"destination" : [ "obj-7", 0 ],
					"hidden" : 0,
					"midpoints" : [  ]
				}

			}
, 			{
				"patchline" : 				{
					"source" : [ "obj-7", 0 ],
					"destination" : [ "obj-55", 0 ],
					"hidden" : 0,
					"midpoints" : [  ]
				}

			}
, 			{
				"patchline" : 				{
					"source" : [ "obj-55", 0 ],
					"destination" : [ "obj-19", 0 ],
					"hidden" : 0,
					"midpoints" : [  ]
				}

			}
, 			{
				"patchline" : 				{
					"source" : [ "obj-51", 0 ],
					"destination" : [ "obj-53", 0 ],
					"hidden" : 0,
					"midpoints" : [  ]
				}

			}
, 			{
				"patchline" : 				{
					"source" : [ "obj-53", 0 ],
					"destination" : [ "obj-58", 0 ],
					"hidden" : 0,
					"midpoints" : [  ]
				}

			}
, 			{
				"patchline" : 				{
					"source" : [ "obj-11", 0 ],
					"destination" : [ "obj-53", 1 ],
					"hidden" : 0,
					"midpoints" : [  ]
				}

			}
, 			{
				"patchline" : 				{
					"source" : [ "obj-19", 0 ],
					"destination" : [ "obj-3", 0 ],
					"hidden" : 0,
					"midpoints" : [  ]
				}

			}
 ]
	}

}
