{
	"patcher" : 	{
		"fileversion" : 1,
		"rect" : [ 240.0, 182.0, 365.0, 535.0 ],
		"bglocked" : 0,
		"defrect" : [ 240.0, 182.0, 365.0, 535.0 ],
		"openrect" : [ 0.0, 0.0, 0.0, 0.0 ],
		"openinpresentation" : 0,
		"default_fontsize" : 12.0,
		"default_fontface" : 0,
		"default_fontname" : "Arial",
		"gridonopen" : 0,
		"gridsize" : [ 15.0, 15.0 ],
		"gridsnaponopen" : 0,
		"toolbarvisible" : 1,
		"boxanimatetime" : 200,
		"imprint" : 0,
		"enablehscroll" : 1,
		"enablevscroll" : 1,
		"devicewidth" : 0.0,
		"boxes" : [ 			{
				"box" : 				{
					"maxclass" : "newobj",
					"text" : "p row_bitmask",
					"fontname" : "Arial Bold",
					"outlettype" : [ "int" ],
					"id" : "obj-7",
					"fontsize" : 10.0,
					"patching_rect" : [ 45.0, 294.0, 81.0, 18.0 ],
					"numinlets" : 1,
					"numoutlets" : 1,
					"patcher" : 					{
						"fileversion" : 1,
						"rect" : [ 537.0, 147.0, 364.0, 336.0 ],
						"bglocked" : 0,
						"defrect" : [ 537.0, 147.0, 364.0, 336.0 ],
						"openrect" : [ 0.0, 0.0, 0.0, 0.0 ],
						"openinpresentation" : 0,
						"default_fontsize" : 12.0,
						"default_fontface" : 0,
						"default_fontname" : "Arial",
						"gridonopen" : 0,
						"gridsize" : [ 15.0, 15.0 ],
						"gridsnaponopen" : 0,
						"toolbarvisible" : 1,
						"boxanimatetime" : 200,
						"imprint" : 0,
						"enablehscroll" : 1,
						"enablevscroll" : 1,
						"devicewidth" : 0.0,
						"boxes" : [ 							{
								"box" : 								{
									"maxclass" : "newobj",
									"text" : "t b i",
									"fontname" : "Arial",
									"outlettype" : [ "bang", "int" ],
									"id" : "obj-5",
									"fontsize" : 12.0,
									"patching_rect" : [ 172.0, 129.0, 32.5, 20.0 ],
									"numinlets" : 1,
									"numoutlets" : 2
								}

							}
, 							{
								"box" : 								{
									"maxclass" : "message",
									"text" : "7",
									"fontname" : "Arial",
									"outlettype" : [ "" ],
									"id" : "obj-3",
									"fontsize" : 12.0,
									"patching_rect" : [ 134.0, 103.0, 32.5, 18.0 ],
									"numinlets" : 2,
									"numoutlets" : 1
								}

							}
, 							{
								"box" : 								{
									"maxclass" : "message",
									"text" : "0",
									"fontname" : "Arial",
									"outlettype" : [ "" ],
									"id" : "obj-60",
									"fontsize" : 12.0,
									"patching_rect" : [ 88.0, 107.0, 32.5, 18.0 ],
									"numinlets" : 2,
									"numoutlets" : 1
								}

							}
, 							{
								"box" : 								{
									"maxclass" : "newobj",
									"text" : "select -1 -2",
									"fontname" : "Arial",
									"outlettype" : [ "bang", "bang", "" ],
									"id" : "obj-61",
									"fontsize" : 12.0,
									"patching_rect" : [ 120.0, 66.0, 70.0, 20.0 ],
									"numinlets" : 1,
									"numoutlets" : 3
								}

							}
, 							{
								"box" : 								{
									"maxclass" : "outlet",
									"id" : "obj-2",
									"patching_rect" : [ 117.0, 264.0, 25.0, 25.0 ],
									"numinlets" : 1,
									"numoutlets" : 0,
									"comment" : ""
								}

							}
, 							{
								"box" : 								{
									"maxclass" : "message",
									"text" : "1",
									"fontname" : "Arial Bold",
									"outlettype" : [ "" ],
									"id" : "obj-21",
									"fontsize" : 10.0,
									"patching_rect" : [ 126.0, 171.0, 32.5, 16.0 ],
									"numinlets" : 2,
									"numoutlets" : 1
								}

							}
, 							{
								"box" : 								{
									"maxclass" : "newobj",
									"text" : "<<",
									"fontname" : "Arial Bold",
									"outlettype" : [ "int" ],
									"id" : "obj-20",
									"fontsize" : 10.0,
									"patching_rect" : [ 159.0, 193.0, 32.5, 18.0 ],
									"numinlets" : 2,
									"numoutlets" : 1
								}

							}
, 							{
								"box" : 								{
									"maxclass" : "inlet",
									"outlettype" : [ "int" ],
									"id" : "obj-1",
									"patching_rect" : [ 111.0, 15.0, 25.0, 25.0 ],
									"numinlets" : 0,
									"numoutlets" : 1,
									"comment" : ""
								}

							}
 ],
						"lines" : [ 							{
								"patchline" : 								{
									"source" : [ "obj-20", 0 ],
									"destination" : [ "obj-2", 0 ],
									"hidden" : 0,
									"midpoints" : [  ]
								}

							}
, 							{
								"patchline" : 								{
									"source" : [ "obj-21", 0 ],
									"destination" : [ "obj-20", 0 ],
									"hidden" : 0,
									"midpoints" : [  ]
								}

							}
, 							{
								"patchline" : 								{
									"source" : [ "obj-61", 0 ],
									"destination" : [ "obj-60", 0 ],
									"hidden" : 0,
									"midpoints" : [  ]
								}

							}
, 							{
								"patchline" : 								{
									"source" : [ "obj-61", 1 ],
									"destination" : [ "obj-3", 0 ],
									"hidden" : 0,
									"midpoints" : [  ]
								}

							}
, 							{
								"patchline" : 								{
									"source" : [ "obj-1", 0 ],
									"destination" : [ "obj-61", 0 ],
									"hidden" : 0,
									"midpoints" : [  ]
								}

							}
, 							{
								"patchline" : 								{
									"source" : [ "obj-60", 0 ],
									"destination" : [ "obj-2", 0 ],
									"hidden" : 0,
									"midpoints" : [  ]
								}

							}
, 							{
								"patchline" : 								{
									"source" : [ "obj-3", 0 ],
									"destination" : [ "obj-5", 0 ],
									"hidden" : 0,
									"midpoints" : [  ]
								}

							}
, 							{
								"patchline" : 								{
									"source" : [ "obj-61", 2 ],
									"destination" : [ "obj-5", 0 ],
									"hidden" : 0,
									"midpoints" : [  ]
								}

							}
, 							{
								"patchline" : 								{
									"source" : [ "obj-5", 0 ],
									"destination" : [ "obj-21", 0 ],
									"hidden" : 0,
									"midpoints" : [  ]
								}

							}
, 							{
								"patchline" : 								{
									"source" : [ "obj-5", 1 ],
									"destination" : [ "obj-20", 1 ],
									"hidden" : 0,
									"midpoints" : [  ]
								}

							}
 ]
					}
,
					"saved_object_attributes" : 					{
						"fontname" : "Arial",
						"fontface" : 0,
						"fontsize" : 12.0,
						"default_fontface" : 0,
						"globalpatchername" : "",
						"default_fontname" : "Arial",
						"default_fontsize" : 12.0
					}

				}

			}
, 			{
				"box" : 				{
					"maxclass" : "message",
					"text" : "-1",
					"fontname" : "Arial",
					"outlettype" : [ "" ],
					"id" : "obj-5",
					"fontsize" : 12.0,
					"patching_rect" : [ 245.0, 212.0, 32.5, 18.0 ],
					"numinlets" : 2,
					"numoutlets" : 1
				}

			}
, 			{
				"box" : 				{
					"maxclass" : "newobj",
					"text" : "loadbang",
					"fontname" : "Arial",
					"outlettype" : [ "bang" ],
					"id" : "obj-4",
					"fontsize" : 12.0,
					"patching_rect" : [ 245.0, 187.0, 60.0, 20.0 ],
					"numinlets" : 1,
					"numoutlets" : 1
				}

			}
, 			{
				"box" : 				{
					"maxclass" : "newobj",
					"text" : "udpsend localhost 8080",
					"fontname" : "Arial",
					"id" : "obj-3",
					"fontsize" : 12.0,
					"patching_rect" : [ 45.0, 481.0, 137.0, 20.0 ],
					"numinlets" : 1,
					"numoutlets" : 0
				}

			}
, 			{
				"box" : 				{
					"maxclass" : "comment",
					"text" : "This patch controls the blinking fired clip and the solid playing clip for one track",
					"linecount" : 2,
					"fontname" : "Arial",
					"id" : "obj-1",
					"fontsize" : 12.0,
					"patching_rect" : [ 47.0, 50.0, 228.0, 34.0 ],
					"numinlets" : 1,
					"numoutlets" : 0
				}

			}
, 			{
				"box" : 				{
					"maxclass" : "newobj",
					"text" : "live.observer fired_slot_index",
					"fontname" : "Arial Bold",
					"outlettype" : [ "", "" ],
					"id" : "obj-68",
					"fontsize" : 10.0,
					"patching_rect" : [ 133.0, 161.0, 152.0, 18.0 ],
					"numinlets" : 2,
					"numoutlets" : 2
				}

			}
, 			{
				"box" : 				{
					"maxclass" : "newobj",
					"text" : "live.observer playing_slot_index",
					"fontname" : "Arial Bold",
					"outlettype" : [ "", "" ],
					"id" : "obj-65",
					"fontsize" : 10.0,
					"patching_rect" : [ 46.0, 131.0, 165.0, 18.0 ],
					"numinlets" : 2,
					"numoutlets" : 2
				}

			}
, 			{
				"box" : 				{
					"maxclass" : "newobj",
					"text" : "live.path live_set tracks #1",
					"fontname" : "Arial Bold",
					"outlettype" : [ "", "", "" ],
					"id" : "obj-67",
					"fontsize" : 10.0,
					"patching_rect" : [ 47.0, 102.0, 137.0, 18.0 ],
					"numinlets" : 1,
					"numoutlets" : 3
				}

			}
, 			{
				"box" : 				{
					"maxclass" : "newobj",
					"text" : "t b i",
					"fontname" : "Arial Bold",
					"outlettype" : [ "bang", "int" ],
					"id" : "obj-58",
					"fontsize" : 10.0,
					"patching_rect" : [ 133.0, 383.0, 32.5, 18.0 ],
					"numinlets" : 1,
					"numoutlets" : 2
				}

			}
, 			{
				"box" : 				{
					"maxclass" : "newobj",
					"text" : "|",
					"fontname" : "Arial Bold",
					"outlettype" : [ "int" ],
					"id" : "obj-55",
					"fontsize" : 10.0,
					"patching_rect" : [ 45.0, 407.0, 32.5, 18.0 ],
					"numinlets" : 2,
					"numoutlets" : 1
				}

			}
, 			{
				"box" : 				{
					"maxclass" : "newobj",
					"text" : "p blinker",
					"fontname" : "Arial Bold",
					"outlettype" : [ "" ],
					"id" : "obj-53",
					"fontsize" : 10.0,
					"patching_rect" : [ 133.0, 339.0, 52.0, 18.0 ],
					"numinlets" : 1,
					"numoutlets" : 1,
					"patcher" : 					{
						"fileversion" : 1,
						"rect" : [ 678.0, 230.0, 378.0, 311.0 ],
						"bglocked" : 0,
						"defrect" : [ 678.0, 230.0, 378.0, 311.0 ],
						"openrect" : [ 0.0, 0.0, 0.0, 0.0 ],
						"openinpresentation" : 0,
						"default_fontsize" : 12.0,
						"default_fontface" : 0,
						"default_fontname" : "Arial",
						"gridonopen" : 0,
						"gridsize" : [ 15.0, 15.0 ],
						"gridsnaponopen" : 0,
						"toolbarvisible" : 1,
						"boxanimatetime" : 200,
						"imprint" : 0,
						"enablehscroll" : 1,
						"enablevscroll" : 1,
						"devicewidth" : 0.0,
						"boxes" : [ 							{
								"box" : 								{
									"maxclass" : "newobj",
									"text" : "t b i",
									"fontname" : "Arial",
									"outlettype" : [ "bang", "int" ],
									"id" : "obj-7",
									"fontsize" : 12.0,
									"patching_rect" : [ 28.0, 160.0, 32.5, 20.0 ],
									"numinlets" : 1,
									"numoutlets" : 2
								}

							}
, 							{
								"box" : 								{
									"maxclass" : "newobj",
									"text" : "gate",
									"fontname" : "Arial",
									"outlettype" : [ "" ],
									"id" : "obj-6",
									"fontsize" : 12.0,
									"patching_rect" : [ 75.0, 66.0, 34.0, 20.0 ],
									"numinlets" : 2,
									"numoutlets" : 1
								}

							}
, 							{
								"box" : 								{
									"maxclass" : "comment",
									"text" : "This patch takes an integer as input.\n\nThe output will alternate between the input integer and 0\n\nIf 0 is sent as input, then the blinking will stop\n\nThis requires that there is a pulsing 1/0 signal being sent by a global metro somewhere.",
									"linecount" : 14,
									"fontname" : "Arial",
									"id" : "obj-23",
									"fontsize" : 12.0,
									"patching_rect" : [ 164.0, 40.0, 150.0, 200.0 ],
									"numinlets" : 1,
									"numoutlets" : 0
								}

							}
, 							{
								"box" : 								{
									"maxclass" : "newobj",
									"text" : "select 1 0",
									"fontname" : "Arial",
									"outlettype" : [ "bang", "bang", "" ],
									"id" : "obj-20",
									"fontsize" : 12.0,
									"patching_rect" : [ 75.0, 130.0, 62.0, 20.0 ],
									"numinlets" : 1,
									"numoutlets" : 3
								}

							}
, 							{
								"box" : 								{
									"maxclass" : "toggle",
									"outlettype" : [ "int" ],
									"id" : "obj-18",
									"patching_rect" : [ 75.0, 96.0, 20.0, 20.0 ],
									"numinlets" : 1,
									"numoutlets" : 1
								}

							}
, 							{
								"box" : 								{
									"maxclass" : "newobj",
									"text" : "receive pulse",
									"fontname" : "Arial",
									"outlettype" : [ "" ],
									"id" : "obj-17",
									"fontsize" : 12.0,
									"patching_rect" : [ 90.0, 17.0, 81.0, 20.0 ],
									"numinlets" : 0,
									"numoutlets" : 1
								}

							}
, 							{
								"box" : 								{
									"maxclass" : "outlet",
									"id" : "obj-5",
									"patching_rect" : [ 50.0, 269.0, 25.0, 25.0 ],
									"numinlets" : 1,
									"numoutlets" : 0,
									"comment" : ""
								}

							}
, 							{
								"box" : 								{
									"maxclass" : "message",
									"text" : "0",
									"fontname" : "Arial",
									"outlettype" : [ "" ],
									"id" : "obj-4",
									"fontsize" : 12.0,
									"patching_rect" : [ 98.0, 214.0, 32.5, 18.0 ],
									"numinlets" : 2,
									"numoutlets" : 1
								}

							}
, 							{
								"box" : 								{
									"maxclass" : "message",
									"text" : "0",
									"fontname" : "Arial",
									"outlettype" : [ "" ],
									"id" : "obj-3",
									"fontsize" : 12.0,
									"patching_rect" : [ 28.0, 218.0, 32.5, 18.0 ],
									"numinlets" : 2,
									"numoutlets" : 1
								}

							}
, 							{
								"box" : 								{
									"maxclass" : "inlet",
									"outlettype" : [ "" ],
									"id" : "obj-2",
									"patching_rect" : [ 28.0, 10.0, 25.0, 25.0 ],
									"numinlets" : 0,
									"numoutlets" : 1,
									"comment" : ""
								}

							}
 ],
						"lines" : [ 							{
								"patchline" : 								{
									"source" : [ "obj-20", 0 ],
									"destination" : [ "obj-3", 0 ],
									"hidden" : 0,
									"midpoints" : [  ]
								}

							}
, 							{
								"patchline" : 								{
									"source" : [ "obj-7", 1 ],
									"destination" : [ "obj-3", 1 ],
									"hidden" : 0,
									"midpoints" : [  ]
								}

							}
, 							{
								"patchline" : 								{
									"source" : [ "obj-7", 0 ],
									"destination" : [ "obj-3", 0 ],
									"hidden" : 0,
									"midpoints" : [  ]
								}

							}
, 							{
								"patchline" : 								{
									"source" : [ "obj-2", 0 ],
									"destination" : [ "obj-7", 0 ],
									"hidden" : 0,
									"midpoints" : [  ]
								}

							}
, 							{
								"patchline" : 								{
									"source" : [ "obj-20", 1 ],
									"destination" : [ "obj-4", 0 ],
									"hidden" : 0,
									"midpoints" : [  ]
								}

							}
, 							{
								"patchline" : 								{
									"source" : [ "obj-3", 0 ],
									"destination" : [ "obj-5", 0 ],
									"hidden" : 0,
									"midpoints" : [ 37.5, 253.0, 59.5, 253.0 ]
								}

							}
, 							{
								"patchline" : 								{
									"source" : [ "obj-4", 0 ],
									"destination" : [ "obj-5", 0 ],
									"hidden" : 0,
									"midpoints" : [ 107.5, 255.0, 59.5, 255.0 ]
								}

							}
, 							{
								"patchline" : 								{
									"source" : [ "obj-6", 0 ],
									"destination" : [ "obj-18", 0 ],
									"hidden" : 0,
									"midpoints" : [  ]
								}

							}
, 							{
								"patchline" : 								{
									"source" : [ "obj-17", 0 ],
									"destination" : [ "obj-6", 1 ],
									"hidden" : 0,
									"midpoints" : [  ]
								}

							}
, 							{
								"patchline" : 								{
									"source" : [ "obj-2", 0 ],
									"destination" : [ "obj-6", 0 ],
									"hidden" : 0,
									"midpoints" : [  ]
								}

							}
, 							{
								"patchline" : 								{
									"source" : [ "obj-18", 0 ],
									"destination" : [ "obj-20", 0 ],
									"hidden" : 0,
									"midpoints" : [  ]
								}

							}
 ]
					}
,
					"saved_object_attributes" : 					{
						"fontname" : "Arial",
						"fontface" : 0,
						"fontsize" : 12.0,
						"default_fontface" : 0,
						"globalpatchername" : "",
						"default_fontname" : "Arial",
						"default_fontsize" : 12.0
					}

				}

			}
, 			{
				"box" : 				{
					"maxclass" : "newobj",
					"text" : "p row_bitmask",
					"fontname" : "Arial Bold",
					"outlettype" : [ "" ],
					"id" : "obj-51",
					"fontsize" : 10.0,
					"patching_rect" : [ 133.0, 293.0, 81.0, 18.0 ],
					"numinlets" : 1,
					"numoutlets" : 1,
					"patcher" : 					{
						"fileversion" : 1,
						"rect" : [ 537.0, 147.0, 364.0, 336.0 ],
						"bglocked" : 0,
						"defrect" : [ 537.0, 147.0, 364.0, 336.0 ],
						"openrect" : [ 0.0, 0.0, 0.0, 0.0 ],
						"openinpresentation" : 0,
						"default_fontsize" : 12.0,
						"default_fontface" : 0,
						"default_fontname" : "Arial",
						"gridonopen" : 0,
						"gridsize" : [ 15.0, 15.0 ],
						"gridsnaponopen" : 0,
						"toolbarvisible" : 1,
						"boxanimatetime" : 200,
						"imprint" : 0,
						"enablehscroll" : 1,
						"enablevscroll" : 1,
						"devicewidth" : 0.0,
						"boxes" : [ 							{
								"box" : 								{
									"maxclass" : "newobj",
									"text" : "t b i",
									"fontname" : "Arial",
									"outlettype" : [ "bang", "int" ],
									"id" : "obj-5",
									"fontsize" : 12.0,
									"patching_rect" : [ 172.0, 129.0, 32.5, 20.0 ],
									"numinlets" : 1,
									"numoutlets" : 2
								}

							}
, 							{
								"box" : 								{
									"maxclass" : "message",
									"text" : "7",
									"fontname" : "Arial",
									"outlettype" : [ "" ],
									"id" : "obj-3",
									"fontsize" : 12.0,
									"patching_rect" : [ 134.0, 103.0, 32.5, 18.0 ],
									"numinlets" : 2,
									"numoutlets" : 1
								}

							}
, 							{
								"box" : 								{
									"maxclass" : "message",
									"text" : "0",
									"fontname" : "Arial",
									"outlettype" : [ "" ],
									"id" : "obj-60",
									"fontsize" : 12.0,
									"patching_rect" : [ 88.0, 107.0, 32.5, 18.0 ],
									"numinlets" : 2,
									"numoutlets" : 1
								}

							}
, 							{
								"box" : 								{
									"maxclass" : "newobj",
									"text" : "select -1 -2",
									"fontname" : "Arial",
									"outlettype" : [ "bang", "bang", "" ],
									"id" : "obj-61",
									"fontsize" : 12.0,
									"patching_rect" : [ 120.0, 66.0, 70.0, 20.0 ],
									"numinlets" : 1,
									"numoutlets" : 3
								}

							}
, 							{
								"box" : 								{
									"maxclass" : "outlet",
									"id" : "obj-2",
									"patching_rect" : [ 117.0, 264.0, 25.0, 25.0 ],
									"numinlets" : 1,
									"numoutlets" : 0,
									"comment" : ""
								}

							}
, 							{
								"box" : 								{
									"maxclass" : "message",
									"text" : "1",
									"fontname" : "Arial Bold",
									"outlettype" : [ "" ],
									"id" : "obj-21",
									"fontsize" : 10.0,
									"patching_rect" : [ 126.0, 171.0, 32.5, 16.0 ],
									"numinlets" : 2,
									"numoutlets" : 1
								}

							}
, 							{
								"box" : 								{
									"maxclass" : "newobj",
									"text" : "<<",
									"fontname" : "Arial Bold",
									"outlettype" : [ "int" ],
									"id" : "obj-20",
									"fontsize" : 10.0,
									"patching_rect" : [ 159.0, 193.0, 32.5, 18.0 ],
									"numinlets" : 2,
									"numoutlets" : 1
								}

							}
, 							{
								"box" : 								{
									"maxclass" : "inlet",
									"outlettype" : [ "int" ],
									"id" : "obj-1",
									"patching_rect" : [ 111.0, 15.0, 25.0, 25.0 ],
									"numinlets" : 0,
									"numoutlets" : 1,
									"comment" : ""
								}

							}
 ],
						"lines" : [ 							{
								"patchline" : 								{
									"source" : [ "obj-5", 1 ],
									"destination" : [ "obj-20", 1 ],
									"hidden" : 0,
									"midpoints" : [  ]
								}

							}
, 							{
								"patchline" : 								{
									"source" : [ "obj-5", 0 ],
									"destination" : [ "obj-21", 0 ],
									"hidden" : 0,
									"midpoints" : [  ]
								}

							}
, 							{
								"patchline" : 								{
									"source" : [ "obj-61", 2 ],
									"destination" : [ "obj-5", 0 ],
									"hidden" : 0,
									"midpoints" : [  ]
								}

							}
, 							{
								"patchline" : 								{
									"source" : [ "obj-3", 0 ],
									"destination" : [ "obj-5", 0 ],
									"hidden" : 0,
									"midpoints" : [  ]
								}

							}
, 							{
								"patchline" : 								{
									"source" : [ "obj-60", 0 ],
									"destination" : [ "obj-2", 0 ],
									"hidden" : 0,
									"midpoints" : [  ]
								}

							}
, 							{
								"patchline" : 								{
									"source" : [ "obj-1", 0 ],
									"destination" : [ "obj-61", 0 ],
									"hidden" : 0,
									"midpoints" : [  ]
								}

							}
, 							{
								"patchline" : 								{
									"source" : [ "obj-61", 1 ],
									"destination" : [ "obj-3", 0 ],
									"hidden" : 0,
									"midpoints" : [  ]
								}

							}
, 							{
								"patchline" : 								{
									"source" : [ "obj-61", 0 ],
									"destination" : [ "obj-60", 0 ],
									"hidden" : 0,
									"midpoints" : [  ]
								}

							}
, 							{
								"patchline" : 								{
									"source" : [ "obj-21", 0 ],
									"destination" : [ "obj-20", 0 ],
									"hidden" : 0,
									"midpoints" : [  ]
								}

							}
, 							{
								"patchline" : 								{
									"source" : [ "obj-20", 0 ],
									"destination" : [ "obj-2", 0 ],
									"hidden" : 0,
									"midpoints" : [  ]
								}

							}
 ]
					}
,
					"saved_object_attributes" : 					{
						"fontname" : "Arial",
						"fontface" : 0,
						"fontsize" : 12.0,
						"default_fontface" : 0,
						"globalpatchername" : "",
						"default_fontname" : "Arial",
						"default_fontsize" : 12.0
					}

				}

			}
, 			{
				"box" : 				{
					"maxclass" : "number",
					"hint" : "Fired clip",
					"annotation" : "Fired clip",
					"fontname" : "Arial Bold",
					"minimum" : -2,
					"outlettype" : [ "int", "bang" ],
					"id" : "obj-47",
					"fontsize" : 10.0,
					"patching_rect" : [ 133.0, 236.0, 37.0, 18.0 ],
					"numinlets" : 1,
					"numoutlets" : 2
				}

			}
, 			{
				"box" : 				{
					"maxclass" : "number",
					"hint" : "Playing clip",
					"annotation" : "Playing clip",
					"fontname" : "Arial Bold",
					"minimum" : -1,
					"outlettype" : [ "int", "bang" ],
					"id" : "obj-28",
					"fontsize" : 10.0,
					"patching_rect" : [ 46.0, 234.0, 32.0, 18.0 ],
					"numinlets" : 1,
					"numoutlets" : 2
				}

			}
, 			{
				"box" : 				{
					"maxclass" : "message",
					"text" : "/launch/led_col #1 $1",
					"fontname" : "Arial Bold",
					"outlettype" : [ "" ],
					"id" : "obj-19",
					"fontsize" : 10.0,
					"patching_rect" : [ 44.954102, 450.767151, 111.0, 16.0 ],
					"numinlets" : 2,
					"numoutlets" : 1
				}

			}
 ],
		"lines" : [ 			{
				"patchline" : 				{
					"source" : [ "obj-19", 0 ],
					"destination" : [ "obj-3", 0 ],
					"hidden" : 0,
					"midpoints" : [  ]
				}

			}
, 			{
				"patchline" : 				{
					"source" : [ "obj-55", 0 ],
					"destination" : [ "obj-19", 0 ],
					"hidden" : 0,
					"midpoints" : [  ]
				}

			}
, 			{
				"patchline" : 				{
					"source" : [ "obj-7", 0 ],
					"destination" : [ "obj-55", 0 ],
					"hidden" : 0,
					"midpoints" : [  ]
				}

			}
, 			{
				"patchline" : 				{
					"source" : [ "obj-28", 0 ],
					"destination" : [ "obj-7", 0 ],
					"hidden" : 0,
					"midpoints" : [  ]
				}

			}
, 			{
				"patchline" : 				{
					"source" : [ "obj-5", 0 ],
					"destination" : [ "obj-47", 0 ],
					"hidden" : 0,
					"midpoints" : [ 254.5, 229.0, 142.5, 229.0 ]
				}

			}
, 			{
				"patchline" : 				{
					"source" : [ "obj-5", 0 ],
					"destination" : [ "obj-28", 0 ],
					"hidden" : 0,
					"midpoints" : [ 254.5, 229.0, 55.5, 229.0 ]
				}

			}
, 			{
				"patchline" : 				{
					"source" : [ "obj-4", 0 ],
					"destination" : [ "obj-5", 0 ],
					"hidden" : 0,
					"midpoints" : [  ]
				}

			}
, 			{
				"patchline" : 				{
					"source" : [ "obj-47", 0 ],
					"destination" : [ "obj-51", 0 ],
					"hidden" : 0,
					"midpoints" : [  ]
				}

			}
, 			{
				"patchline" : 				{
					"source" : [ "obj-67", 1 ],
					"destination" : [ "obj-68", 1 ],
					"hidden" : 0,
					"midpoints" : [ 115.5, 124.0, 275.5, 124.0 ]
				}

			}
, 			{
				"patchline" : 				{
					"source" : [ "obj-67", 1 ],
					"destination" : [ "obj-65", 1 ],
					"hidden" : 0,
					"midpoints" : [ 115.5, 127.0, 201.5, 127.0 ]
				}

			}
, 			{
				"patchline" : 				{
					"source" : [ "obj-65", 0 ],
					"destination" : [ "obj-28", 0 ],
					"hidden" : 0,
					"midpoints" : [  ]
				}

			}
, 			{
				"patchline" : 				{
					"source" : [ "obj-68", 0 ],
					"destination" : [ "obj-47", 0 ],
					"hidden" : 0,
					"midpoints" : [  ]
				}

			}
, 			{
				"patchline" : 				{
					"source" : [ "obj-51", 0 ],
					"destination" : [ "obj-53", 0 ],
					"hidden" : 0,
					"midpoints" : [  ]
				}

			}
, 			{
				"patchline" : 				{
					"source" : [ "obj-58", 0 ],
					"destination" : [ "obj-55", 0 ],
					"hidden" : 0,
					"midpoints" : [ 142.5, 401.0, 86.0, 401.0, 86.0, 395.0, 54.5, 395.0 ]
				}

			}
, 			{
				"patchline" : 				{
					"source" : [ "obj-58", 1 ],
					"destination" : [ "obj-55", 1 ],
					"hidden" : 0,
					"midpoints" : [ 156.0, 409.0, 68.0, 409.0 ]
				}

			}
, 			{
				"patchline" : 				{
					"source" : [ "obj-53", 0 ],
					"destination" : [ "obj-58", 0 ],
					"hidden" : 0,
					"midpoints" : [  ]
				}

			}
 ]
	}

}
